<?xml version="1.0" standalone="no"?>
<!DOCTYPE svg PUBLIC "-//W3C//DTD SVG 20010904//EN"
 "http://www.w3.org/TR/2001/REC-SVG-20010904/DTD/svg10.dtd">
<svg version="1.0" xmlns="http://www.w3.org/2000/svg"
 width="900.000000pt" height="900.000000pt" viewBox="0 0 900.000000 900.000000"
 preserveAspectRatio="xMidYMid meet">
<metadata>
Created by potrace 1.11, written by Peter Selinger 2001-2013
</metadata>
<g transform="translate(0.000000,900.000000) scale(0.100000,-0.100000)"
fill="#000000" stroke="none">
<path d="M2475 6895 c-16 -8 -37 -20 -46 -27 -25 -21 -74 -101 -78 -128 -9
-52 -5 -4506 3 -4525 5 -11 9 -23 8 -27 -1 -4 20 -29 46 -57 37 -39 57 -52 88
-57 21 -3 210 -7 419 -8 416 -1 442 2 497 57 15 15 25 27 22 27 -2 0 4 12 13
27 17 26 18 114 20 1638 1 885 2 1688 3 1783 l2 173 26 10 c25 10 1435 17
1472 7 8 -2 21 -7 28 -11 6 -5 12 -6 12 -3 0 3 21 -4 46 -14 25 -11 50 -18 54
-15 5 3 11 1 14 -4 4 -5 17 -8 31 -6 14 1 25 -2 25 -7 0 -5 4 -7 9 -3 5 3 12
1 16 -5 4 -6 11 -8 16 -5 5 3 30 -3 55 -14 26 -12 51 -21 57 -21 9 0 105 -57
117 -70 3 -3 11 -6 18 -8 18 -3 81 -45 116 -76 16 -14 32 -26 35 -26 3 0 28
-20 56 -45 27 -25 53 -45 57 -45 4 0 8 -5 8 -11 0 -7 8 -19 18 -28 25 -22 103
-123 124 -157 9 -16 33 -56 53 -89 21 -33 38 -64 39 -70 1 -5 7 -20 14 -32 7
-12 12 -27 12 -33 0 -6 10 -32 22 -58 12 -26 23 -51 24 -57 1 -5 4 -21 7 -35
3 -14 11 -45 18 -70 7 -25 14 -49 15 -55 1 -5 3 -12 4 -15 4 -9 11 -142 12
-215 2 -86 -9 -232 -17 -245 -3 -6 -8 -20 -10 -31 -14 -69 -48 -185 -61 -203
-8 -12 -19 -39 -25 -61 -6 -22 -24 -61 -40 -88 -16 -26 -29 -51 -29 -56 0 -5
-7 -14 -16 -22 -8 -7 -26 -34 -40 -60 -13 -26 -29 -52 -36 -56 -7 -4 -25 -24
-40 -44 -32 -43 -132 -140 -179 -174 -19 -14 -45 -33 -58 -42 -27 -21 -100
-64 -151 -90 -19 -10 -38 -22 -42 -28 -4 -5 -8 -7 -8 -2 0 4 -15 0 -32 -10
-34 -17 -43 -20 -89 -27 -14 -2 -46 -14 -70 -25 -83 -40 -226 -53 -642 -56
-235 -2 -290 0 -294 11 -3 8 -9 12 -13 9 -14 -9 -19 26 -18 130 1 96 8 143 22
138 3 -2 7 -3 9 -3 1 0 146 2 322 5 366 6 354 5 460 35 44 12 93 24 109 26 16
2 43 12 60 22 17 11 47 25 66 32 32 13 99 55 175 113 39 29 163 155 184 187 8
14 30 44 48 68 18 24 33 50 33 58 0 8 5 14 11 14 5 0 8 4 4 9 -3 5 -1 12 4 15
5 4 17 30 26 59 9 28 24 68 33 87 9 19 17 37 17 40 1 3 4 14 8 25 24 72 25
355 1 456 -4 13 -7 32 -7 42 -1 9 -5 17 -9 17 -4 0 -7 3 -6 8 0 4 -6 23 -14
42 -20 47 -31 73 -34 85 -14 55 -81 165 -145 240 -46 53 -169 168 -169 158 0
-2 -20 12 -44 31 -23 20 -46 36 -50 36 -5 0 -20 8 -34 18 -23 16 -157 72 -187
78 -14 3 -114 22 -145 28 -14 2 -36 7 -50 10 -73 16 -148 19 -505 21 -365 1
-394 0 -445 -18 -30 -11 -56 -24 -58 -28 -2 -5 -8 -9 -14 -9 -20 0 -75 -72
-85 -111 -10 -44 -9 -2412 1 -2449 12 -39 16 -45 64 -96 31 -32 64 -52 102
-60 20 -5 850 -5 965 0 56 2 117 12 162 25 40 13 77 20 82 17 5 -4 12 -3 15 2
2 4 19 9 37 10 57 4 252 71 299 102 22 14 94 43 103 42 4 -1 7 2 7 7 0 5 17
16 38 24 20 9 49 27 64 41 15 14 31 26 35 26 12 0 120 78 170 123 64 58 214
207 208 207 -3 0 15 26 40 58 75 96 80 103 148 227 36 66 71 140 78 165 7 25
16 50 20 55 7 10 28 81 35 121 2 12 12 41 23 65 10 24 22 76 26 114 4 39 9 88
11 110 10 97 3 428 -11 495 -3 14 -7 39 -9 55 -2 17 -14 52 -25 78 -12 27 -21
60 -21 74 0 13 -13 55 -30 93 -16 38 -30 76 -30 84 0 9 -11 33 -24 54 -12 20
-24 40 -25 44 -1 4 -17 34 -36 67 -19 33 -35 63 -35 68 0 5 -8 18 -18 29 -10
10 -33 42 -52 69 -18 28 -40 54 -47 58 -7 4 -13 15 -13 22 0 8 -4 15 -10 15
-5 0 -10 4 -10 9 0 4 -27 36 -60 70 -33 33 -57 61 -53 61 4 0 -4 8 -17 17 -37
25 -41 29 -85 67 -82 72 -91 78 -120 93 -16 9 -32 19 -35 22 -13 17 -101 69
-152 90 -32 13 -58 27 -58 32 0 5 -6 9 -14 9 -8 0 -47 16 -87 34 -41 19 -94
38 -119 41 -25 4 -51 11 -57 17 -7 6 -13 8 -13 4 0 -3 -17 1 -37 8 -21 8 -63
17 -93 20 -112 11 -166 18 -196 26 -17 4 -406 7 -865 6 -803 -1 -835 -2 -874
-20 -22 -11 -55 -36 -73 -55 -67 -73 -62 84 -62 -1874 0 -1134 -4 -1785 -10
-1791 -5 -5 -52 -8 -104 -7 -152 3 -172 11 -160 61 5 21 8 3774 3 3908 -1 24
4 49 10 55 18 18 1929 18 2098 1 68 -7 128 -16 133 -19 6 -4 32 -9 58 -11 26
-2 58 -6 72 -8 50 -9 96 -16 125 -18 17 -1 33 -6 36 -10 3 -5 15 -10 27 -13
12 -2 26 -6 31 -9 5 -3 26 -8 46 -11 21 -2 59 -15 84 -28 25 -13 64 -30 86
-37 40 -13 101 -44 210 -106 33 -19 68 -37 78 -40 9 -4 17 -9 17 -13 0 -4 16
-15 35 -24 20 -9 38 -24 41 -32 4 -8 12 -15 20 -15 31 0 261 -218 361 -343 80
-98 115 -147 108 -147 -4 0 0 -7 9 -15 8 -8 29 -41 47 -72 18 -32 39 -64 45
-71 7 -6 16 -22 19 -35 4 -12 26 -62 50 -112 69 -147 85 -188 90 -240 2 -23
18 -81 25 -90 9 -13 28 -90 34 -142 3 -22 7 -52 10 -65 19 -83 29 -195 29
-308 0 -87 -7 -185 -13 -185 -2 0 -8 -35 -15 -85 -3 -25 -8 -65 -12 -90 -3
-25 -6 -47 -6 -50 1 -3 -8 -22 -18 -42 -11 -21 -17 -38 -14 -38 3 0 1 -8 -4
-18 -5 -10 -12 -37 -16 -61 -3 -24 -11 -55 -17 -70 -6 -14 -13 -34 -15 -44 -1
-10 -10 -29 -19 -42 -9 -14 -13 -25 -9 -25 3 0 -3 -13 -14 -29 -11 -15 -18
-31 -14 -35 3 -3 1 -6 -5 -6 -7 0 -11 -3 -10 -7 2 -10 -45 -107 -74 -155 -13
-20 -36 -58 -52 -85 -16 -26 -44 -68 -63 -93 -18 -25 -43 -58 -55 -75 -40 -54
-292 -300 -343 -335 -27 -18 -51 -37 -53 -42 -2 -4 -10 -8 -18 -8 -8 0 -14 -4
-14 -9 0 -5 -13 -14 -29 -21 -16 -6 -37 -19 -47 -28 -11 -9 -39 -27 -64 -40
-25 -12 -72 -38 -105 -56 -33 -18 -63 -32 -67 -30 -4 3 -9 0 -13 -6 -3 -5 -15
-10 -27 -10 -11 0 -32 -8 -46 -19 -24 -16 -85 -40 -115 -45 -7 -1 -16 -4 -22
-7 -5 -4 -26 -11 -45 -17 -33 -11 -56 -15 -155 -28 -64 -8 -69 -9 -82 -17 -7
-5 -13 -6 -13 -4 0 3 -21 -2 -47 -10 -40 -13 -137 -16 -588 -19 -297 -2 -553
-6 -570 -9 -36 -6 -110 -70 -123 -105 -5 -14 -10 -55 -10 -92 0 -105 49 -178
129 -194 45 -9 1034 -9 1174 0 61 4 126 12 145 19 41 13 30 11 105 22 33 5 62
9 65 10 3 1 23 5 45 9 22 4 58 16 80 26 38 18 148 59 170 63 6 2 15 6 21 9 6
4 22 9 36 12 14 2 40 13 58 23 73 41 116 62 128 62 6 1 12 6 12 11 0 6 9 10
19 10 11 0 26 7 35 15 8 9 17 15 18 13 4 -2 59 33 76 49 7 7 20 13 28 13 8 0
14 3 14 8 0 4 26 23 58 41 31 19 64 43 73 53 9 10 21 18 27 18 6 0 16 8 21 18
6 9 11 13 11 9 0 -4 13 6 30 23 16 16 32 30 35 30 4 0 29 23 56 50 27 28 55
50 61 50 6 0 9 3 6 6 -4 3 26 38 65 78 40 41 79 83 87 94 9 12 29 36 46 54 29
32 148 208 174 257 7 14 17 30 22 35 10 12 97 166 95 169 0 1 3 13 7 27 5 14
8 28 7 33 -1 4 3 7 8 7 5 0 13 15 16 33 4 17 15 40 24 51 9 10 15 20 13 22 -1
2 5 18 14 35 15 29 23 54 28 89 7 40 19 86 26 95 4 6 10 26 14 45 3 19 8 45
10 56 2 12 7 39 10 60 4 22 13 59 21 84 21 66 25 94 32 215 11 210 4 440 -17
525 -6 25 -12 53 -15 63 -2 10 -7 27 -10 37 -8 24 -11 44 -19 103 -4 27 -13
67 -21 90 -8 23 -16 53 -19 67 -13 68 -37 139 -60 180 -13 25 -28 62 -31 83
-4 20 -10 37 -14 37 -7 0 -30 50 -36 78 -2 12 -13 34 -24 49 -22 29 -55 87
-91 160 -11 23 -26 48 -34 55 -11 12 -31 40 -81 116 -17 26 -39 53 -70 87 -46
50 -75 85 -75 89 0 5 -150 156 -155 156 -2 0 -28 23 -57 51 -29 28 -73 65 -98
82 -25 17 -56 42 -70 55 -14 12 -46 35 -72 49 -27 14 -48 30 -48 35 0 4 -6 8
-14 8 -8 0 -21 6 -28 13 -21 18 -63 42 -175 98 -57 28 -103 55 -103 59 0 4
-16 11 -36 15 -20 3 -59 17 -88 29 -74 34 -88 38 -120 42 -17 3 -40 11 -53 19
-13 9 -23 13 -23 10 0 -3 -8 -1 -17 4 -10 5 -34 12 -53 15 -19 3 -46 8 -60 10
-27 5 -137 18 -145 17 -3 0 -26 7 -52 16 -43 15 -177 17 -1343 19 -1101 3
-1299 1 -1325 -11z m2445 -1830 c25 -4 57 -16 72 -26 14 -11 30 -19 36 -19 5
0 31 -12 56 -26 84 -47 220 -196 241 -265 4 -13 15 -40 25 -59 20 -39 30 -101
31 -187 1 -72 -10 -154 -22 -169 -5 -6 -16 -34 -24 -62 -9 -28 -21 -55 -28
-59 -7 -4 -19 -21 -27 -38 -15 -30 -158 -175 -172 -175 -11 0 -102 -42 -108
-50 -6 -8 -52 -21 -92 -26 -16 -2 -43 -7 -60 -10 -18 -3 -161 -7 -318 -8 -234
-2 -290 0 -311 12 l-26 14 1 570 c1 532 2 571 19 583 13 10 90 12 340 11 177
-2 342 -6 367 -11z"/>
</g>
</svg>
